<svg width="314.388" height="26.856" viewBox="0 0 314.388 26.856" xmlns="http://www.w3.org/2000/svg"><path d="M 10.512 26.712 L 8.568 26.712 L 0 1.512 L 1.944 1.512 L 10.08 25.596 L 9.108 25.596 L 17.496 1.512 L 19.26 1.512 L 27.576 25.596 L 26.64 25.596 L 34.848 1.512 L 36.648 1.512 L 28.116 26.712 L 26.172 26.712 L 18.108 3.42 L 18.576 3.42 L 10.512 26.712 Z M 127.296 17.748 L 110.7 17.748 L 110.7 16.344 L 126.324 16.344 L 125.604 17.028 A 9.706 9.706 0 0 0 125.605 16.869 Q 125.605 15.622 125.281 14.522 A 7.274 7.274 0 0 0 124.686 13.086 Q 123.732 11.34 122.112 10.35 A 6.755 6.755 0 0 0 119.273 9.407 A 8.462 8.462 0 0 0 118.368 9.36 A 7.518 7.518 0 0 0 116.061 9.704 A 6.668 6.668 0 0 0 114.642 10.35 Q 113.004 11.34 112.068 13.086 Q 111.132 14.832 111.132 17.064 L 111.132 17.388 A 8.828 8.828 0 0 0 111.422 19.689 A 7.427 7.427 0 0 0 112.158 21.474 Q 113.184 23.256 114.984 24.246 Q 116.784 25.236 119.088 25.236 A 8.83 8.83 0 0 0 121.959 24.775 A 8.325 8.325 0 0 0 122.454 24.588 Q 124.02 23.94 125.1 22.608 L 126.144 23.796 Q 124.92 25.308 123.066 26.082 A 10.176 10.176 0 0 1 119.521 26.847 A 11.786 11.786 0 0 1 119.052 26.856 A 11.23 11.23 0 0 1 116.296 26.531 A 9.196 9.196 0 0 1 114.03 25.632 Q 111.852 24.408 110.61 22.248 Q 109.368 20.088 109.368 17.316 Q 109.368 14.508 110.538 12.366 Q 111.708 10.224 113.76 9 A 8.74 8.74 0 0 1 118.011 7.782 A 10.46 10.46 0 0 1 118.368 7.776 A 9.436 9.436 0 0 1 121.289 8.217 A 8.465 8.465 0 0 1 122.958 8.964 Q 124.992 10.152 126.162 12.294 A 9.497 9.497 0 0 1 127.218 15.554 A 12.129 12.129 0 0 1 127.332 17.244 A 1.491 1.491 0 0 1 127.326 17.371 A 1.908 1.908 0 0 1 127.314 17.478 Q 127.296 17.604 127.296 17.748 Z M 79.704 15.732 L 79.704 26.712 L 77.904 26.712 L 77.904 15.876 A 10.047 10.047 0 0 0 77.748 14.044 Q 77.403 12.191 76.302 11.052 A 5.239 5.239 0 0 0 73.725 9.61 Q 72.855 9.396 71.82 9.396 Q 69.624 9.396 68.004 10.296 Q 66.384 11.196 65.538 12.816 Q 64.704 14.414 64.692 16.642 A 12.072 12.072 0 0 0 64.692 16.704 L 64.692 26.712 L 62.892 26.712 L 62.892 7.92 L 64.62 7.92 L 64.62 13.14 L 64.368 12.564 Q 65.232 10.332 67.212 9.054 A 7.793 7.793 0 0 1 69.949 7.973 A 10.892 10.892 0 0 1 72.072 7.776 A 10.153 10.153 0 0 1 74.086 7.967 A 7.644 7.644 0 0 1 76.086 8.658 Q 77.796 9.54 78.75 11.322 Q 79.704 13.104 79.704 15.732 Z M 156.276 18.9 L 156.276 7.92 L 158.076 7.92 L 158.076 18.756 Q 158.076 20.988 158.88 22.47 A 4.966 4.966 0 0 0 159.696 23.58 A 5.283 5.283 0 0 0 162.203 24.993 Q 163.021 25.206 163.989 25.232 A 10.191 10.191 0 0 0 164.268 25.236 A 8.414 8.414 0 0 0 166.104 25.045 A 6.404 6.404 0 0 0 167.94 24.336 Q 169.488 23.436 170.316 21.798 A 7.495 7.495 0 0 0 170.997 19.706 A 10.235 10.235 0 0 0 171.144 17.928 L 171.144 7.92 L 172.944 7.92 L 172.944 26.712 L 171.216 26.712 L 171.216 21.492 L 171.468 22.104 Q 170.64 24.3 168.714 25.578 A 7.61 7.61 0 0 1 165.564 26.755 A 9.941 9.941 0 0 1 164.124 26.856 A 11.134 11.134 0 0 1 162.138 26.687 A 8.099 8.099 0 0 1 159.948 25.974 Q 158.184 25.092 157.23 23.31 Q 156.276 21.528 156.276 18.9 Z M 263.736 18.9 L 263.736 7.92 L 265.536 7.92 L 265.536 18.756 Q 265.536 20.988 266.34 22.47 A 4.966 4.966 0 0 0 267.156 23.58 A 5.283 5.283 0 0 0 269.663 24.993 Q 270.481 25.206 271.449 25.232 A 10.191 10.191 0 0 0 271.728 25.236 A 8.414 8.414 0 0 0 273.564 25.045 A 6.404 6.404 0 0 0 275.4 24.336 Q 276.948 23.436 277.776 21.798 A 7.495 7.495 0 0 0 278.457 19.706 A 10.235 10.235 0 0 0 278.604 17.928 L 278.604 7.92 L 280.404 7.92 L 280.404 26.712 L 278.676 26.712 L 278.676 21.492 L 278.928 22.104 Q 278.1 24.3 276.174 25.578 A 7.61 7.61 0 0 1 273.024 26.755 A 9.941 9.941 0 0 1 271.584 26.856 A 11.134 11.134 0 0 1 269.598 26.687 A 8.099 8.099 0 0 1 267.408 25.974 Q 265.644 25.092 264.69 23.31 Q 263.736 21.528 263.736 18.9 Z M 299.448 24.444 L 300.276 23.004 A 7.236 7.236 0 0 0 301.359 23.771 Q 301.923 24.102 302.604 24.389 A 13.625 13.625 0 0 0 303.156 24.606 Q 304.956 25.272 307.044 25.272 Q 309.996 25.272 311.292 24.3 Q 312.565 23.345 312.588 21.8 A 3.833 3.833 0 0 0 312.588 21.744 Q 312.588 20.592 311.922 19.926 Q 311.256 19.26 310.14 18.9 A 16.856 16.856 0 0 0 308.68 18.504 A 20.883 20.883 0 0 0 307.692 18.306 Q 306.36 18.072 305.028 17.784 Q 303.696 17.496 302.58 16.956 A 4.666 4.666 0 0 1 301.221 15.979 A 4.377 4.377 0 0 1 300.798 15.462 A 3.433 3.433 0 0 1 300.309 14.39 Q 300.132 13.741 300.132 12.924 Q 300.132 11.484 300.924 10.332 A 4.785 4.785 0 0 1 302.104 9.15 Q 302.624 8.78 303.279 8.487 A 8.164 8.164 0 0 1 303.3 8.478 Q 304.606 7.899 306.449 7.798 A 14.726 14.726 0 0 1 307.26 7.776 Q 309.024 7.776 310.806 8.28 A 11.61 11.61 0 0 1 312.132 8.738 Q 313.037 9.117 313.704 9.612 L 312.876 11.052 Q 311.688 10.152 310.212 9.756 Q 308.736 9.36 307.224 9.36 A 11.806 11.806 0 0 0 305.8 9.44 Q 304.315 9.621 303.424 10.213 A 3.258 3.258 0 0 0 303.21 10.368 A 3.588 3.588 0 0 0 302.407 11.232 A 2.984 2.984 0 0 0 301.932 12.888 A 3.438 3.438 0 0 0 302.018 13.679 A 2.347 2.347 0 0 0 302.598 14.778 A 3.811 3.811 0 0 0 303.533 15.489 A 5.228 5.228 0 0 0 304.38 15.858 A 15.339 15.339 0 0 0 305.859 16.274 A 18.878 18.878 0 0 0 306.828 16.47 Q 308.16 16.704 309.492 16.992 A 12.055 12.055 0 0 1 311.221 17.499 A 10.401 10.401 0 0 1 311.94 17.802 A 4.756 4.756 0 0 1 313.159 18.609 A 4.265 4.265 0 0 1 313.722 19.242 A 3.239 3.239 0 0 1 314.211 20.279 Q 314.333 20.713 314.371 21.225 A 6.524 6.524 0 0 1 314.388 21.708 Q 314.388 23.256 313.542 24.408 Q 312.707 25.545 311.084 26.191 A 8.22 8.22 0 0 1 311.04 26.208 A 8.656 8.656 0 0 1 309.446 26.651 Q 308.329 26.856 306.972 26.856 A 14.152 14.152 0 0 1 303.766 26.503 A 12.576 12.576 0 0 1 302.598 26.172 Q 301.063 25.656 300.051 24.934 A 5.848 5.848 0 0 1 299.448 24.444 Z M 177.804 24.444 L 178.632 23.004 A 7.236 7.236 0 0 0 179.715 23.771 Q 180.279 24.102 180.96 24.389 A 13.625 13.625 0 0 0 181.512 24.606 Q 183.312 25.272 185.4 25.272 Q 188.352 25.272 189.648 24.3 Q 190.921 23.345 190.944 21.8 A 3.833 3.833 0 0 0 190.944 21.744 Q 190.944 20.592 190.278 19.926 Q 189.612 19.26 188.496 18.9 A 16.856 16.856 0 0 0 187.036 18.504 A 20.883 20.883 0 0 0 186.048 18.306 Q 184.716 18.072 183.384 17.784 Q 182.052 17.496 180.936 16.956 A 4.666 4.666 0 0 1 179.577 15.979 A 4.377 4.377 0 0 1 179.154 15.462 A 3.433 3.433 0 0 1 178.665 14.39 Q 178.488 13.741 178.488 12.924 Q 178.488 11.484 179.28 10.332 A 4.785 4.785 0 0 1 180.46 9.15 Q 180.98 8.78 181.635 8.487 A 8.164 8.164 0 0 1 181.656 8.478 Q 182.962 7.899 184.805 7.798 A 14.726 14.726 0 0 1 185.616 7.776 Q 187.38 7.776 189.162 8.28 A 11.61 11.61 0 0 1 190.488 8.738 Q 191.393 9.117 192.06 9.612 L 191.232 11.052 Q 190.044 10.152 188.568 9.756 Q 187.092 9.36 185.58 9.36 A 11.806 11.806 0 0 0 184.156 9.44 Q 182.671 9.621 181.78 10.213 A 3.258 3.258 0 0 0 181.566 10.368 A 3.588 3.588 0 0 0 180.763 11.232 A 2.984 2.984 0 0 0 180.288 12.888 A 3.438 3.438 0 0 0 180.374 13.679 A 2.347 2.347 0 0 0 180.954 14.778 A 3.811 3.811 0 0 0 181.889 15.489 A 5.228 5.228 0 0 0 182.736 15.858 A 15.339 15.339 0 0 0 184.215 16.274 A 18.878 18.878 0 0 0 185.184 16.47 Q 186.516 16.704 187.848 16.992 A 12.055 12.055 0 0 1 189.577 17.499 A 10.401 10.401 0 0 1 190.296 17.802 A 4.756 4.756 0 0 1 191.515 18.609 A 4.265 4.265 0 0 1 192.078 19.242 A 3.239 3.239 0 0 1 192.567 20.279 Q 192.689 20.713 192.727 21.225 A 6.524 6.524 0 0 1 192.744 21.708 Q 192.744 23.256 191.898 24.408 Q 191.063 25.545 189.44 26.191 A 8.22 8.22 0 0 1 189.396 26.208 A 8.656 8.656 0 0 1 187.802 26.651 Q 186.685 26.856 185.328 26.856 A 14.152 14.152 0 0 1 182.122 26.503 A 12.576 12.576 0 0 1 180.954 26.172 Q 179.419 25.656 178.407 24.934 A 5.848 5.848 0 0 1 177.804 24.444 Z M 228.6 26.712 L 226.764 26.712 L 226.764 3.168 L 217.692 3.168 L 217.692 1.512 L 237.672 1.512 L 237.672 3.168 L 228.6 3.168 L 228.6 26.712 Z M 47.232 16.236 L 54.144 16.236 L 54.144 17.64 L 47.268 17.64 Q 44.828 17.64 43.61 18.396 A 2.833 2.833 0 0 0 43.182 18.72 A 3.504 3.504 0 0 0 42.015 21.269 A 4.384 4.384 0 0 0 42.012 21.42 A 3.814 3.814 0 0 0 42.272 22.851 A 3.485 3.485 0 0 0 43.38 24.3 Q 44.471 25.162 46.273 25.336 A 9.972 9.972 0 0 0 47.232 25.38 A 8.684 8.684 0 0 0 49.105 25.188 A 6.326 6.326 0 0 0 51.246 24.3 A 6.118 6.118 0 0 0 53.319 21.962 A 7.843 7.843 0 0 0 53.676 21.168 L 54.18 22.392 Q 53.424 24.444 51.606 25.65 A 6.897 6.897 0 0 1 49.358 26.6 Q 48.444 26.816 47.379 26.85 A 12.589 12.589 0 0 1 46.98 26.856 Q 44.984 26.856 43.498 26.247 A 6.75 6.75 0 0 1 43.362 26.19 Q 41.832 25.524 41.022 24.3 A 4.902 4.902 0 0 1 40.219 21.789 A 6.003 6.003 0 0 1 40.212 21.492 A 5.364 5.364 0 0 1 40.523 19.649 A 4.982 4.982 0 0 1 40.878 18.882 A 4.109 4.109 0 0 1 41.897 17.71 Q 42.345 17.351 42.924 17.057 A 7.422 7.422 0 0 1 43.092 16.974 A 6.564 6.564 0 0 1 44.4 16.524 Q 45.612 16.236 47.232 16.236 Z M 55.476 26.712 L 53.748 26.712 L 53.748 22.428 L 53.676 21.78 L 53.676 14.724 Q 53.676 12.794 52.909 11.543 A 4.104 4.104 0 0 0 52.254 10.728 Q 51.048 9.568 48.897 9.392 A 9.813 9.813 0 0 0 48.096 9.36 A 9.99 9.99 0 0 0 45.359 9.727 A 9.084 9.084 0 0 0 44.478 10.026 A 10.628 10.628 0 0 0 42.705 10.922 A 8.755 8.755 0 0 0 41.616 11.736 L 40.716 10.44 Q 42.12 9.18 44.1 8.478 Q 46.08 7.776 48.24 7.776 Q 50.773 7.776 52.454 8.704 A 5.656 5.656 0 0 1 53.604 9.54 Q 55.476 11.304 55.476 14.796 L 55.476 26.712 Z M 134.712 26.712 L 132.912 26.712 L 132.912 7.92 L 134.64 7.92 L 134.64 13.068 L 134.46 12.492 A 7.107 7.107 0 0 1 135.649 10.324 A 6.42 6.42 0 0 1 137.124 9 A 7.222 7.222 0 0 1 139.526 8.01 Q 140.494 7.794 141.613 7.777 A 12.665 12.665 0 0 1 141.804 7.776 L 141.804 9.54 Q 141.696 9.54 141.588 9.522 Q 141.48 9.504 141.372 9.504 A 8.025 8.025 0 0 0 139.298 9.757 A 5.676 5.676 0 0 0 136.476 11.466 A 6.496 6.496 0 0 0 135.074 14.07 Q 134.712 15.338 134.712 16.92 L 134.712 26.712 Z M 289.836 26.712 L 288.036 26.712 L 288.036 7.92 L 289.764 7.92 L 289.764 13.068 L 289.584 12.492 A 7.107 7.107 0 0 1 290.773 10.324 A 6.42 6.42 0 0 1 292.248 9 A 7.222 7.222 0 0 1 294.65 8.01 Q 295.618 7.794 296.737 7.777 A 12.665 12.665 0 0 1 296.928 7.776 L 296.928 9.54 Q 296.82 9.54 296.712 9.522 Q 296.604 9.504 296.496 9.504 A 8.025 8.025 0 0 0 294.422 9.757 A 5.676 5.676 0 0 0 291.6 11.466 A 6.496 6.496 0 0 0 290.198 14.07 Q 289.836 15.338 289.836 16.92 L 289.836 26.712 Z M 198.144 21.744 L 198.144 3.816 L 199.944 3.816 L 199.944 21.564 A 5.77 5.77 0 0 0 200.04 22.65 Q 200.157 23.262 200.419 23.742 A 2.946 2.946 0 0 0 200.844 24.336 A 2.906 2.906 0 0 0 202.277 25.171 Q 202.735 25.291 203.279 25.306 A 5.701 5.701 0 0 0 203.436 25.308 A 4.896 4.896 0 0 0 204.815 25.122 A 3.88 3.88 0 0 0 206.352 24.264 L 207.108 25.524 A 4.351 4.351 0 0 1 205.621 26.442 A 5.15 5.15 0 0 1 205.362 26.532 A 6.953 6.953 0 0 1 203.256 26.856 Q 200.772 26.856 199.458 25.488 A 4.542 4.542 0 0 1 198.329 23.384 Q 198.144 22.635 198.144 21.744 Z M 246.131 26.47 A 8.736 8.736 0 0 1 244.17 25.632 Q 242.064 24.408 240.822 22.248 Q 239.58 20.088 239.58 17.316 A 10.778 10.778 0 0 1 239.91 14.597 A 8.875 8.875 0 0 1 240.822 12.366 Q 242.064 10.224 244.17 9 A 9.082 9.082 0 0 1 247.964 7.821 A 11.213 11.213 0 0 1 248.976 7.776 A 10.179 10.179 0 0 1 251.905 8.185 A 8.869 8.869 0 0 1 253.8 9 Q 255.924 10.224 257.148 12.366 A 9.256 9.256 0 0 1 258.275 15.789 A 11.717 11.717 0 0 1 258.372 17.316 A 10.718 10.718 0 0 1 258.006 20.165 A 9.091 9.091 0 0 1 257.148 22.248 Q 255.924 24.408 253.8 25.632 Q 251.676 26.856 248.976 26.856 A 10.156 10.156 0 0 1 246.131 26.47 Z M 248.976 25.236 Q 251.136 25.236 252.864 24.246 Q 254.592 23.256 255.564 21.456 A 8.072 8.072 0 0 0 256.455 18.624 A 10.244 10.244 0 0 0 256.536 17.316 A 9.816 9.816 0 0 0 256.308 15.154 A 7.664 7.664 0 0 0 255.564 13.158 Q 254.592 11.376 252.864 10.386 Q 251.136 9.396 248.976 9.396 A 8.072 8.072 0 0 0 246.57 9.745 A 7.136 7.136 0 0 0 245.106 10.386 Q 243.396 11.376 242.406 13.158 A 7.798 7.798 0 0 0 241.523 15.821 A 10.145 10.145 0 0 0 241.416 17.316 Q 241.416 19.656 242.406 21.456 Q 243.396 23.256 245.106 24.246 A 7.4 7.4 0 0 0 248.312 25.212 A 8.993 8.993 0 0 0 248.976 25.236 Z M 94.356 26.856 Q 91.728 26.856 89.622 25.65 Q 87.516 24.444 86.292 22.284 A 9.424 9.424 0 0 1 85.145 18.685 A 11.861 11.861 0 0 1 85.068 17.316 A 11.18 11.18 0 0 1 85.369 14.667 A 8.946 8.946 0 0 1 86.292 12.33 Q 87.516 10.188 89.622 8.982 A 9.188 9.188 0 0 1 93.707 7.795 A 11.048 11.048 0 0 1 94.356 7.776 A 9.215 9.215 0 0 1 97.339 8.249 A 8.407 8.407 0 0 1 98.838 8.928 A 8.328 8.328 0 0 1 102.006 12.203 A 9.118 9.118 0 0 1 102.952 14.867 Q 103.173 15.991 103.176 17.275 A 15.182 15.182 0 0 1 103.176 17.316 A 12.437 12.437 0 0 1 102.923 19.881 A 9.436 9.436 0 0 1 102.024 22.392 A 8.404 8.404 0 0 1 100.047 24.88 A 7.941 7.941 0 0 1 98.874 25.704 Q 96.876 26.856 94.356 26.856 Z M 94.464 25.236 A 8.072 8.072 0 0 0 96.87 24.887 A 7.136 7.136 0 0 0 98.334 24.246 Q 100.044 23.256 101.034 21.456 A 7.979 7.979 0 0 0 101.946 18.59 A 10.084 10.084 0 0 0 102.024 17.316 A 9.644 9.644 0 0 0 101.792 15.154 A 7.577 7.577 0 0 0 101.034 13.158 Q 100.044 11.376 98.334 10.386 A 7.4 7.4 0 0 0 95.128 9.42 A 8.993 8.993 0 0 0 94.464 9.396 A 8.072 8.072 0 0 0 92.058 9.745 A 7.136 7.136 0 0 0 90.594 10.386 Q 88.884 11.376 87.894 13.158 A 7.798 7.798 0 0 0 87.011 15.821 A 10.145 10.145 0 0 0 86.904 17.316 Q 86.904 19.656 87.894 21.456 Q 88.884 23.256 90.594 24.246 A 7.4 7.4 0 0 0 93.8 25.212 A 8.993 8.993 0 0 0 94.464 25.236 Z M 148.896 26.712 L 147.096 26.712 L 147.096 0 L 148.896 0 L 148.896 26.712 Z M 103.824 26.712 L 102.06 26.712 L 102.06 20.556 L 102.384 17.28 L 102.024 14.004 L 102.024 0 L 103.824 0 L 103.824 26.712 Z M 205.92 9.468 L 194.688 9.468 L 194.688 7.92 L 205.92 7.92 L 205.92 9.468 Z"/></g></svg>