<?xml version="1.0" encoding="UTF-8"?>
<!DOCTYPE svg PUBLIC "-//W3C//DTD SVG 1.1//EN" "http://www.w3.org/Graphics/SVG/1.1/DTD/svg11.dtd">
<svg xmlns="http://www.w3.org/2000/svg" version="1.1" width="200px" height="200px" style="shape-rendering:geometricPrecision; text-rendering:geometricPrecision; image-rendering:optimizeQuality; fill-rule:evenodd; clip-rule:evenodd" xmlns:xlink="http://www.w3.org/1999/xlink">
<g><path style="opacity:1" fill="#f4812a" d="M 98.5,43.5 C 99.4959,43.4142 100.329,43.7476 101,44.5C 101.667,47.5 101.667,50.5 101,53.5C 100,54.8333 99,54.8333 98,53.5C 97.2534,50.0764 97.42,46.7431 98.5,43.5 Z"/></g>
<g><path style="opacity:1" fill="#f4812a" d="M 87.5,50.5 C 90.9103,50.3838 92.2436,52.0504 91.5,55.5C 88.5299,55.2542 87.1966,53.5876 87.5,50.5 Z"/></g>
<g><path style="opacity:1" fill="#f4812a" d="M 108.5,50.5 C 109.5,50.5 110.5,50.5 111.5,50.5C 111.803,53.5876 110.47,55.2542 107.5,55.5C 107.366,53.7085 107.699,52.0418 108.5,50.5 Z"/></g>
<g><path style="opacity:1" fill="#f4812a" d="M 76.5,52.5 C 79.3943,53.8823 81.8943,55.8823 84,58.5C 84.5,60.6667 83.6667,61.5 81.5,61C 79.6667,59.1667 77.8333,57.3333 76,55.5C 75.5304,54.4232 75.6971,53.4232 76.5,52.5 Z"/></g>
<g><path style="opacity:1" fill="#f4812a" d="M 120.5,52.5 C 122.686,52.5106 123.519,53.5106 123,55.5C 120.936,58.2736 118.436,60.1069 115.5,61C 114.549,60.2825 114.383,59.4491 115,58.5C 117.04,56.6298 118.873,54.6298 120.5,52.5 Z"/></g>
<g><path style="opacity:0.992" fill="#f4802b" d="M 94.5,56.5 C 112.651,55.9796 120.651,64.6463 118.5,82.5C 119.559,83.6964 120.893,84.363 122.5,84.5C 124.59,82.8942 126.924,82.3942 129.5,83C 131.087,83.8624 132.754,84.5291 134.5,85C 135.841,86.8265 135.341,87.9931 133,88.5C 129.378,86.0285 125.711,86.0285 122,88.5C 118.333,85.8333 114.667,85.8333 111,88.5C 109,87.8333 107,87.1667 105,86.5C 103.216,87.3091 101.383,87.9757 99.5,88.5C 95.6587,87.2064 91.8254,87.2064 88,88.5C 84.3333,85.8333 80.6667,85.8333 77,88.5C 75,87.8333 73,87.1667 71,86.5C 68.9497,87.7912 66.783,88.2912 64.5,88C 63.5494,87.2825 63.3828,86.4491 64,85.5C 68.0445,82.2652 72.2112,81.9319 76.5,84.5C 78.1073,84.363 79.4406,83.6964 80.5,82.5C 77.8518,69.7916 82.5185,61.125 94.5,56.5 Z M 96.5,60.5 C 108.669,62.1174 113.502,69.1174 111,81.5C 110.612,82.428 109.945,83.0946 109,83.5C 100.804,83.3695 92.6371,83.0362 84.5,82.5C 82.2934,77.8388 82.46,73.1721 85,68.5C 88.5104,65.1211 92.3438,62.4544 96.5,60.5 Z"/></g>
<g><path style="opacity:1" fill="#f4812a" d="M 73.5,64.5 C 77.8143,64.3866 78.981,66.0532 77,69.5C 74.4438,68.7809 73.2771,67.1142 73.5,64.5 Z"/></g>
<g><path style="opacity:1" fill="#f4812a" d="M 122.5,64.5 C 123.5,64.5 124.5,64.5 125.5,64.5C 125.723,67.1142 124.556,68.7809 122,69.5C 119.99,67.6037 120.157,65.937 122.5,64.5 Z"/></g>
<g><path style="opacity:1" fill="#f4812a" d="M 66.5,74.5 C 69.5,74.5 72.5,74.5 75.5,74.5C 75.5,75.8333 75.5,77.1667 75.5,78.5C 72.1667,78.5 68.8333,78.5 65.5,78.5C 65.4326,77.0413 65.7659,75.7079 66.5,74.5 Z"/></g>
<g><path style="opacity:1" fill="#f4812a" d="M 123.5,74.5 C 126.518,74.3354 129.518,74.502 132.5,75C 133.337,76.0113 133.67,77.1779 133.5,78.5C 130.167,78.5 126.833,78.5 123.5,78.5C 123.5,77.1667 123.5,75.8333 123.5,74.5 Z"/></g>
<g><path style="opacity:1" fill="#f4812a" d="M 68.5,88.5 C 71.5279,88.3389 74.3612,89.0056 77,90.5C 80.6667,87.8333 84.3333,87.8333 88,90.5C 91.8502,87.8939 95.6835,87.8939 99.5,90.5C 103.316,87.8939 107.15,87.8939 111,90.5C 114.667,87.8333 118.333,87.8333 122,90.5C 127.128,87.4953 131.628,88.1619 135.5,92.5C 132.718,93.952 130.218,93.6187 128,91.5C 124.132,94.128 120.299,94.128 116.5,91.5C 112.701,94.128 108.868,94.128 105,91.5C 101.333,94.1667 97.6667,94.1667 94,91.5C 90.1323,94.128 86.299,94.128 82.5,91.5C 78.701,94.128 74.8677,94.128 71,91.5C 68.7815,93.6187 66.2815,93.952 63.5,92.5C 65.2012,91.1653 66.8679,89.832 68.5,88.5 Z"/></g>
<g><path style="opacity:1" fill="#f0c99f" d="M 4.5,100.5 C 6.62816,99.3709 8.96149,99.2042 11.5,100C 13.7942,104.088 15.9609,108.255 18,112.5C 20.3644,107.876 19.8644,103.709 16.5,100C 18.8333,99.3333 21.1667,99.3333 23.5,100C 25.718,103.984 27.5513,108.15 29,112.5C 31.0758,109.281 32.5758,105.781 33.5,102C 33.0946,101.055 32.428,100.388 31.5,100C 33.8333,99.3333 36.1667,99.3333 38.5,100C 37.0692,100.465 35.9025,101.299 35,102.5C 32.9815,109.394 30.4815,116.061 27.5,122.5C 24.8741,118.495 22.7074,114.162 21,109.5C 19.4506,113.99 17.6173,118.323 15.5,122.5C 12.0222,115.908 9.02216,109.075 6.5,102C 6.16389,100.97 5.49722,100.47 4.5,100.5 Z"/></g>
<g><path style="opacity:0.939" fill="#f0c89f" d="M 86.5,100.5 C 87.4486,99.8476 88.6153,99.5143 90,99.5C 91.6581,99.6752 92.9914,100.342 94,101.5C 93.8907,108.609 94.724,115.443 96.5,122C 93.6529,122.944 91.1529,122.444 89,120.5C 85.6667,123.167 82.3333,123.167 79,120.5C 74.8415,110.531 78.0081,105.531 88.5,105.5C 88.9227,103.219 88.256,101.552 86.5,100.5 Z M 85.5,108.5 C 86.5,108.5 87.5,108.5 88.5,108.5C 89.1102,112.635 88.2768,116.301 86,119.5C 84.1805,115.941 84.0139,112.274 85.5,108.5 Z"/></g>
<g><path style="opacity:1" fill="#f0c99f" d="M 131.5,100.5 C 133.895,99.1857 136.395,99.1857 139,100.5C 139.333,107.167 139.667,113.833 140,120.5C 140.5,121 141,121.5 141.5,122C 138.167,122.667 134.833,122.667 131.5,122C 132.789,118.598 133.456,114.931 133.5,111C 133.488,107.098 132.821,103.598 131.5,100.5 Z"/></g>
<g><path style="opacity:1" fill="#f0c99f" d="M 183.5,101.5 C 185.167,101.5 186.833,101.5 188.5,101.5C 188.5,102.833 188.5,104.167 188.5,105.5C 194.966,105.71 194.966,106.377 188.5,107.5C 188.334,111.514 188.501,115.514 189,119.5C 189.308,120.308 189.808,120.975 190.5,121.5C 192.197,120.636 193.363,119.303 194,117.5C 194.433,121.068 192.767,122.734 189,122.5C 186.966,122.646 185.299,121.98 184,120.5C 183.221,115.701 182.054,111.034 180.5,106.5C 181.994,105.095 182.994,103.429 183.5,101.5 Z"/></g>
<g><path style="opacity:0.952" fill="#f0c89f" d="M 39.5,105.5 C 43.5839,105.043 47.4172,105.71 51,107.5C 52.2036,111.716 52.8702,116.049 53,120.5C 53.5,121 54,121.5 54.5,122C 51.975,122.896 49.8083,122.396 48,120.5C 44.8986,122.72 41.5653,123.053 38,121.5C 35.895,118.989 36.0617,116.656 38.5,114.5C 41.0841,113.607 43.7508,113.274 46.5,113.5C 46.6621,111.473 46.4955,109.473 46,107.5C 44.9887,106.663 43.8221,106.33 42.5,106.5C 42.5,108.167 42.5,109.833 42.5,111.5C 37.6788,111.193 36.6788,109.193 39.5,105.5 Z M 44.5,115.5 C 45.4972,115.47 46.1639,115.97 46.5,117C 45.9498,121.158 44.6165,121.491 42.5,118C 43.3805,117.292 44.0472,116.458 44.5,115.5 Z"/></g>
<g><path style="opacity:1" fill="#f0c99f" d="M 55.5,106.5 C 58.1431,105.021 60.6431,105.354 63,107.5C 65.4973,105.522 68.3307,105.022 71.5,106C 72.7014,106.903 73.5348,108.069 74,109.5C 73.9369,113.982 74.7703,118.148 76.5,122C 73.9009,122.769 71.4009,122.602 69,121.5C 68.6667,117.167 68.3333,112.833 68,108.5C 66.6667,107.167 65.3333,107.167 64,108.5C 63.3333,112.5 63.3333,116.5 64,120.5C 64.5,121 65,121.5 65.5,122C 62.1667,122.667 58.8333,122.667 55.5,122C 56.7595,119.787 57.4262,117.287 57.5,114.5C 57.3333,112.167 57.1667,109.833 57,107.5C 56.6174,106.944 56.1174,106.611 55.5,106.5 Z"/></g>
<g><path style="opacity:0.922" fill="#f0c89f" d="M 101.5,105.5 C 105.839,104.846 109.673,105.846 113,108.5C 113.495,110.473 113.662,112.473 113.5,114.5C 110.14,114.616 106.807,114.949 103.5,115.5C 104.8,122.656 107.634,123.322 112,117.5C 112.267,121.554 110.267,123.221 106,122.5C 98.9017,121.668 96.2351,117.668 98,110.5C 98.9973,108.677 100.164,107.01 101.5,105.5 Z M 104.5,107.5 C 105.649,107.791 106.316,108.624 106.5,110C 106.167,110.833 105.833,111.667 105.5,112.5C 104.548,110.955 104.215,109.288 104.5,107.5 Z"/></g>
<g><path style="opacity:1" fill="#f0c99f" d="M 115.5,106.5 C 118.061,105.169 120.561,105.502 123,107.5C 126.222,104.645 129.056,104.979 131.5,108.5C 130.625,110.773 128.958,111.773 126.5,111.5C 126.762,110.022 126.429,108.689 125.5,107.5C 124.914,107.709 124.414,108.043 124,108.5C 123.333,112.5 123.333,116.5 124,120.5C 124.5,121 125,121.5 125.5,122C 122.167,122.667 118.833,122.667 115.5,122C 116,121.5 116.5,121 117,120.5C 117.667,116.167 117.667,111.833 117,107.5C 116.617,106.944 116.117,106.611 115.5,106.5 Z"/></g>
<g><path style="opacity:1" fill="#f0c99f" d="M 142.5,106.5 C 145.143,105.021 147.643,105.354 150,107.5C 150.499,111.821 150.666,116.154 150.5,120.5C 151.833,120.5 153.167,120.5 154.5,120.5C 154.666,116.154 154.499,111.821 154,107.5C 153.5,107 153,106.5 152.5,106C 155.833,105.333 159.167,105.333 162.5,106C 162,106.5 161.5,107 161,107.5C 160.501,112.489 160.334,117.489 160.5,122.5C 155.852,122.348 151.185,122.015 146.5,121.5C 145.808,120.975 145.308,120.308 145,119.5C 144.667,115.5 144.333,111.5 144,107.5C 143.617,106.944 143.117,106.611 142.5,106.5 Z"/></g>
<g><path style="opacity:1" fill="#f0c99f" d="M 166.5,105.5 C 170.287,105.78 173.953,105.78 177.5,105.5C 178.833,107.5 178.833,109.5 177.5,111.5C 176.167,109.5 174.5,107.833 172.5,106.5C 171.28,106.887 170.613,107.72 170.5,109C 172.274,111.393 174.607,113.059 177.5,114C 180.167,116.667 180.167,119.333 177.5,122C 172.676,122.196 168.009,122.363 163.5,122.5C 163.5,120.5 163.5,118.5 163.5,116.5C 165.982,118.033 168.482,119.699 171,121.5C 172.28,121.387 173.113,120.72 173.5,119.5C 170.798,117.058 167.965,114.724 165,112.5C 164.167,109.829 164.667,107.496 166.5,105.5 Z"/></g>
<g><path style="opacity:1" fill="#f4812a" d="M 60.5,126.5 C 65.8333,126.5 71.1667,126.5 76.5,126.5C 76.8426,133.095 75.5093,133.761 72.5,128.5C 71.1926,134.388 71.1926,140.221 72.5,146C 69.8333,146.667 67.1667,146.667 64.5,146C 65.8074,140.221 65.8074,134.388 64.5,128.5C 60.3383,134.141 59.005,133.474 60.5,126.5 Z"/></g>
<g><path style="opacity:0.967" fill="#f4802b" d="M 79.5,132.5 C 86.2689,130.687 90.6022,133.021 92.5,139.5C 89.8055,147.603 84.9722,149.27 78,144.5C 75.7844,140.132 76.2844,136.132 79.5,132.5 Z M 83.5,134.5 C 85.8896,134.685 86.8896,136.018 86.5,138.5C 84.5595,146.58 82.8929,146.913 81.5,139.5C 81.9024,137.7 82.5691,136.033 83.5,134.5 Z"/></g>
<g><path style="opacity:1" fill="#f4812a" d="M 92.5,133.5 C 94.5598,132.189 96.7265,132.189 99,133.5C 99.3333,137.167 99.6667,140.833 100,144.5C 101,145.833 102,145.833 103,144.5C 103.167,142.667 103.333,140.833 103.5,139C 103.4,136.698 102.733,134.698 101.5,133C 104.5,132.333 107.5,132.333 110.5,133C 108.753,137.531 107.92,142.365 108,147.5C 106.667,146.833 105.333,146.167 104,145.5C 101.716,147.984 99.2162,148.151 96.5,146C 95.2709,141.66 93.9376,137.493 92.5,133.5 Z"/></g>
<g><path style="opacity:1" fill="#f4812a" d="M 111.5,133.5 C 115.354,133.511 119.354,133.345 123.5,133C 124.38,134.356 124.714,135.856 124.5,137.5C 123.167,137.5 121.833,137.5 120.5,137.5C 120.657,136.127 120.49,134.793 120,133.5C 118.208,137.565 118.041,141.731 119.5,146C 116.833,146.667 114.167,146.667 111.5,146C 112.822,141.733 112.822,137.566 111.5,133.5 Z"/></g>
<g><path style="opacity:1" fill="#f4812a" d="M 127.5,132.5 C 131.015,132.712 134.348,132.712 137.5,132.5C 138.679,138.273 137.679,138.773 134.5,134C 133.552,133.517 132.552,133.351 131.5,133.5C 131.626,136.595 133.293,138.428 136.5,139C 140.36,143.48 139.193,146.314 133,147.5C 130.783,146.468 128.617,146.468 126.5,147.5C 125.038,141.462 126.038,140.629 129.5,145C 130.793,145.49 132.127,145.657 133.5,145.5C 133.719,144.325 133.386,143.325 132.5,142.5C 129.906,141.408 127.739,139.741 126,137.5C 125.387,135.505 125.887,133.838 127.5,132.5 Z"/></g>
</svg>
