<?xml version="1.0" standalone="no"?>
<!DOCTYPE svg PUBLIC "-//W3C//DTD SVG 20010904//EN"
 "http://www.w3.org/TR/2001/REC-SVG-20010904/DTD/svg10.dtd">
<svg version="1.0" xmlns="http://www.w3.org/2000/svg"
 width="200.000000pt" height="200.000000pt" viewBox="0 0 200.000000 200.000000"
 preserveAspectRatio="xMidYMid meet">

<g transform="translate(0.000000,200.000000) scale(0.100000,-0.100000)"
fill="#000000" stroke="none">
<path d="M0 1000 l0 -1000 1000 0 1000 0 0 1000 0 1000 -1000 0 -1000 0 0
-1000z m1010 505 c0 -25 -4 -45 -10 -45 -5 0 -10 20 -10 45 0 25 5 45 10 45 6
0 10 -20 10 -45z m-90 -52 c0 -24 -25 -9 -28 17 -3 21 -2 22 12 11 9 -7 16
-20 16 -28z m186 2 c-7 -18 -26 -20 -26 -2 0 18 24 41 28 27 2 -6 1 -17 -2
-25z m-291 -25 c16 -16 25 -33 22 -37 -8 -7 -67 45 -67 59 0 16 17 8 45 -22z
m415 22 c0 -14 -59 -66 -67 -59 -3 4 6 21 22 37 28 30 45 38 45 22z m-175 -36
c91 -28 153 -125 139 -216 -8 -48 16 -66 63 -48 24 9 38 8 62 -1 17 -8 31 -17
31 -22 0 -12 -27 -11 -51 2 -15 7 -24 7 -35 -1 -8 -8 -27 -10 -46 -6 -41 8
-55 8 -96 0 -18 -4 -38 -2 -45 5 -10 8 -22 7 -45 -1 -25 -10 -39 -10 -64 0
-23 8 -35 9 -45 1 -7 -7 -27 -9 -45 -5 -18 4 -40 7 -48 7 -8 0 -30 -3 -48 -7
-19 -4 -38 -2 -46 6 -11 8 -20 8 -35 1 -24 -13 -51 -14 -51 -2 0 5 14 14 31
22 24 9 38 10 62 1 47 -18 71 0 63 48 -14 89 47 188 135 215 57 18 57 18 114
1z m-270 -87 c4 -6 5 -13 2 -16 -8 -7 -47 7 -47 18 0 13 37 11 45 -2z m475 2
c0 -11 -39 -25 -47 -18 -3 3 -2 10 2 16 8 13 45 15 45 2z m-500 -101 c0 -5
-22 -10 -50 -10 -27 0 -50 5 -50 10 0 6 23 10 50 10 28 0 50 -4 50 -10z m580
0 c0 -5 -22 -10 -50 -10 -27 0 -50 5 -50 10 0 6 23 10 50 10 28 0 50 -4 50
-10z m-594 -132 c25 -9 39 -9 59 0 19 9 31 9 50 0 20 -9 34 -9 61 1 26 10 39
10 47 2 6 -6 23 -11 37 -11 14 0 31 5 37 11 8 8 21 8 47 -2 27 -10 41 -10 61
-1 19 9 31 9 50 0 20 -9 34 -9 59 0 27 10 38 9 64 -4 37 -18 44 -40 10 -29
-13 4 -33 7 -45 6 -13 -1 -36 -1 -53 -1 -16 0 -43 0 -60 0 -16 0 -43 0 -60 0
-16 0 -41 0 -55 0 -14 0 -38 0 -55 0 -16 0 -41 0 -55 0 -14 0 -38 0 -55 0 -16
0 -43 0 -60 0 -16 0 -43 0 -60 0 -16 0 -40 0 -52 1 -13 1 -33 -2 -45 -6 -33
-11 -29 11 5 28 35 19 31 19 68 5z m-622 -114 c9 -8 16 -19 16 -24 0 -5 10
-30 21 -57 l21 -48 14 38 c14 40 6 83 -19 99 -7 4 1 8 19 8 38 0 47 -10 78
-86 l24 -58 16 39 c27 63 30 86 15 96 -10 6 -3 9 20 9 30 0 32 -2 19 -12 -9
-7 -31 -59 -49 -115 -18 -57 -36 -103 -40 -103 -3 0 -19 32 -34 72 l-28 72
-23 -59 c-13 -33 -23 -66 -23 -72 -2 -33 -19 -5 -56 88 -21 56 -45 108 -53
115 -11 12 -9 14 17 14 16 0 37 -7 45 -16z m814 -88 c2 -59 8 -106 15 -115 10
-12 8 -13 -18 -7 -36 8 -41 8 -80 0 -43 -8 -70 24 -70 81 0 57 27 88 72 83 30
-4 33 -2 33 23 0 15 -6 30 -12 33 -7 3 3 4 22 3 l35 -2 3 -99z m462 -14 l5
-112 -39 0 c-31 0 -37 3 -28 12 17 17 16 204 0 212 -7 3 3 4 22 3 l35 -2 5
-113z m490 78 c0 -14 7 -20 23 -21 l22 -2 -23 -4 c-22 -4 -23 -8 -20 -76 2
-56 6 -72 19 -75 8 -1 21 7 27 20 7 15 11 18 11 7 2 -40 -63 -53 -94 -19 -25
27 -36 137 -17 168 18 28 52 30 52 2z m-1387 -40 c22 -17 26 -29 29 -85 3 -68
0 -72 -34 -54 -14 8 -23 8 -31 0 -18 -18 -65 -13 -80 10 -26 36 -11 58 44 65
52 7 54 9 39 48 -12 34 -40 34 -40 1 0 -28 -27 -35 -36 -10 -17 43 63 61 109
25z m107 10 c13 -7 27 -7 44 1 30 14 71 5 82 -18 4 -10 10 -46 13 -80 6 -59 5
-63 -14 -63 -34 0 -45 20 -45 86 0 66 -11 84 -36 63 -12 -10 -15 -29 -12 -81
l3 -68 -39 0 c-31 0 -37 3 -28 12 7 7 12 39 12 73 0 34 -5 66 -12 73 -15 15 5
17 32 2z m509 -14 c36 -38 25 -60 -32 -64 -41 -3 -47 -6 -47 -26 0 -47 48 -62
74 -24 9 12 16 17 16 11 0 -39 -76 -57 -117 -28 -30 21 -39 74 -19 113 18 34
28 40 72 41 20 1 38 -7 53 -23z m92 14 c13 -8 25 -7 39 0 30 16 62 3 58 -23
-4 -29 -31 -28 -38 2 -5 21 -7 22 -19 8 -8 -11 -12 -38 -9 -82 l3 -65 -35 0
-35 0 0 85 c0 47 4 85 8 85 5 0 17 -5 28 -10z m275 2 c6 -4 13 -35 16 -70 5
-70 18 -93 43 -72 18 15 21 120 3 138 -9 9 -3 12 28 12 l39 0 -3 -85 c-3 -85
-12 -101 -40 -73 -9 9 -15 9 -24 0 -18 -18 -63 -15 -81 6 -22 24 -28 152 -7
152 8 0 20 -4 26 -8z m304 -24 c0 -16 -4 -28 -10 -28 -5 0 -10 4 -10 9 0 15
-30 41 -46 41 -27 0 -14 -37 23 -61 52 -35 61 -53 38 -79 -16 -17 -28 -20 -77
-18 -57 3 -58 3 -58 33 l1 30 20 -27 c25 -34 69 -39 69 -8 0 13 -14 27 -40 40
-26 13 -42 29 -46 47 -10 37 16 53 83 50 51 -2 53 -3 53 -29z m-1160 -202 c0
-8 -4 -18 -10 -21 -5 -3 -10 3 -10 14 0 12 5 21 10 21 6 0 10 -6 10 -14z m80
-81 c0 -92 -1 -95 -22 -95 -22 0 -23 3 -23 95 0 92 1 95 23 95 21 0 22 -3 22
-95z m60 69 c0 -28 -15 -25 -23 6 -3 13 0 20 9 20 8 0 14 -10 14 -26z m60 -39
c-8 -10 -11 -35 -8 -70 3 -30 2 -55 0 -55 -3 0 -14 7 -24 17 -27 24 -24 87 4
107 29 20 44 21 28 1z m80 -26 c15 -27 3 -77 -20 -89 -10 -6 -20 -10 -22 -10
-2 0 -3 31 -3 69 0 62 2 68 17 60 10 -5 22 -19 28 -30z m78 29 c15 -19 20
-128 6 -128 -21 0 -32 25 -36 83 -3 57 7 72 30 45z m102 -59 c0 -62 -2 -70
-17 -67 -14 3 -19 17 -23 71 -5 64 -4 67 18 67 21 0 22 -4 22 -71z m72 59 c11
-9 18 -32 20 -71 3 -53 1 -57 -19 -57 -20 0 -22 6 -25 70 -2 39 0 70 3 70 3 0
12 -6 21 -12z m77 -2 c9 -10 8 -16 -4 -26 -13 -11 -15 -8 -15 14 0 30 3 32 19
12z m74 -5 c-3 -13 6 -24 31 -39 42 -25 53 -46 36 -67 -17 -20 -38 -19 -36 2
0 10 -15 28 -36 42 -39 25 -47 48 -26 69 18 18 37 14 31 -7z m67 -7 c0 -8 -4
-12 -10 -9 -5 3 -10 10 -10 16 0 5 5 9 10 9 6 0 10 -7 10 -16z m-97 -89 c4 -8
2 -17 -3 -20 -6 -4 -10 3 -10 14 0 25 6 27 13 6z"/>
<path d="M916 1376 c-52 -31 -86 -89 -86 -146 0 -50 6 -62 36 -78 16 -8 29 -8
52 0 23 9 37 9 57 0 19 -9 32 -9 47 -1 11 6 35 8 54 4 30 -5 35 -3 44 20 25
65 -3 154 -62 199 -44 33 -90 34 -142 2z"/>
<path d="M846 915 c-9 -25 -7 -108 3 -124 8 -12 12 -13 26 -1 23 19 18 133 -6
138 -9 2 -19 -4 -23 -13z"/>
<path d="M430 821 c0 -17 5 -33 10 -36 16 -10 40 15 40 41 0 19 -5 24 -25 24
-21 0 -25 -5 -25 -29z"/>
<path d="M1046 914 c-12 -31 -6 -54 13 -54 22 0 29 15 23 47 -5 26 -27 31 -36
7z"/>
</g>
</svg>
